:FULLY-SPECIFIED
:FORCE-ALL-JOINTS-BE-3DOF
:DEGREES
17
root 7.6123 15.9156 -34.6104 7.05633 -4.13307 -5.52846
lfemur -40.3374 -0.916086 -7.2815
ltibia 19.6918 -0 0
lfoot -15.5215 15.6003 -0.018824
ltoes -11.6967 0 0
rfemur 5.10271 6.44835 31.3795
rtibia 11.647 -0 0
rfoot -20.3972 -1.28384 -0.000823287
rtoes -6.59022 0 0
lowerback -6.21533 1.18212 2.17422
upperback -1.2097 1.35608 2.97183
thorax 2.2162 0.682749 1.95079
lowerneck -19.9886 -4.93217 -11.7265
upperneck 15.9342 -6.47521 14.9602
head 9.21614 -2.21927 6.26781
lclavicle 2.82647e-15 -7.22251e-15 0
lhumerus -39.7633 -8.17691 89.8754
lradius 29.2472 -0 0
lwrist 7.13269 0 0
lhand -7.54162 -23.0304 -0.0010558
lfingers 7.12502 0 0
lthumb 18.35 6.12591 -0.000581716
rclavicle 2.82647e-15 -7.22251e-15 0
rhumerus -41.0229 19.2284 -88.2653
rradius 62.4756 -0 0
rwrist -35.0463 0 0
rhand -31.4387 -29.3037 0.000565937
rfingers 7.12502 0 0
rthumb -4.70673 -59.2315 0.000557683
18
root 7.62458 15.9051 -34.4699 7.10238 -4.59036 -5.8391
lfemur -40.3085 -1.40006 -6.35596
ltibia 19.1205 -0 0
lfoot -15.8349 16.5661 -0.00963389
ltoes -10.9616 0 0
rfemur 6.13667 6.56686 31.5874
rtibia 10.6551 -0 0
rfoot -19.4266 -1.0603 0.00291095
rtoes -6.49163 0 0
lowerback -6.30454 1.30051 2.46453
upperback -1.22758 1.48915 3.03716
thorax 2.25039 0.750733 1.86841
lowerneck -19.9853 -4.91144 -11.7831
upperneck 15.9541 -6.42617 14.9341
head 9.2155 -2.20259 6.27602
lclavicle 4.10304e-15 -7.08998e-15 0
lhumerus -39.9767 -8.44935 90.0241
lradius 29.024 -0 0
lwrist 7.10323 0 0
lhand -7.57089 -23.216 -0.000130649
lfingers 7.12502 0 0
lthumb 18.3218 5.94177 3.65121e-05
rclavicle 4.10304e-15 -7.08998e-15 0
rhumerus -41.3117 19.3189 -88.6579
rradius 62.63 -0 0
rwrist -34.9978 0 0
rhand -31.46 -29.2355 0.000559162
rfingers 7.12502 0 0
rthumb -4.72732 -59.1628 0.000549835
19
root 7.63687 15.8945 -34.3294 7.12192 -5.0519 -6.09301
lfemur -40.2639 -1.64834 -5.6802
ltibia 18.69 0 0
lfoot -16.0304 17.2354 0
ltoes -10.5633 0 0
rfemur 7.2685 6.71662 31.7327
rtibia 9.49848 0 0
rfoot -18.6051 -0.965217 0
rtoes -6.83488 0 0
lowerback -6.37702 1.41426 2.71823
upperback -1.22749 1.61871 3.07529
thorax 2.29486 0.816891 1.77833
lowerneck -19.9815 -4.88918 -11.7923
upperneck 15.9658 -6.38906 14.9111
head 9.21241 -2.18829 6.27503
lclavicle 5.37961e-15 -6.95746e-15 0
lhumerus -40.2088 -8.689 90.1427
lradius 28.8481 0 0
lwrist 7.0214 0 0
lhand -7.6207 -23.2962 0
lfingers 7.12502 0 0
lthumb 18.2738 5.86544 0
rclavicle 5.37961e-15 -6.95746e-15 0
rhumerus -41.5682 19.3963 -89.053
rradius 62.7376 0 0
rwrist -34.9099 0 0
rhand -31.4242 -29.2481 0
rfingers 7.12502 0 0
rthumb -4.69277 -59.1761 0
20
root 7.65682 15.8804 -34.182 7.09793 -5.55541 -6.28885
lfemur -40.1749 -1.63347 -5.25635
ltibia 18.4221 -0 0
lfoot -16.1254 17.6077 0.00755076
ltoes -10.551 0 0
rfemur 8.58631 6.93871 31.816
rtibia 8.03148 -0 0
rfoot -17.763 -1.03811 -0.00748828
rtoes -7.52514 0 0
lowerback -6.41115 1.53634 2.94566
upperback -1.20487 1.76279 3.07336
thorax 2.34331 0.890326 1.66269
lowerneck -19.9593 -4.86346 -11.7406
upperneck 15.9519 -6.36698 14.8997
head 9.19817 -2.17697 6.26452
lclavicle 3.26131e-15 -1.04031e-14 0
lhumerus -40.4657 -8.9093 90.2169
lradius 28.7274 -0 0
lwrist 6.88476 0 0
lhand -7.70658 -23.2231 -0.00117716
lfingers 7.12502 0 0
lthumb 18.1912 5.94614 -0.00117367
rclavicle 3.26131e-15 -1.04031e-14 0
rhumerus -41.7905 19.4512 -89.4698
rradius 62.7946 -0 0
rwrist -34.794 0 0
rhand -31.3049 -29.3609 -0.00118036
rfingers 7.12502 0 0
rthumb -4.57761 -59.2911 -0.00116012
21
root 7.67676 15.8664 -34.0345 7.03652 -6.11059 -6.44906
lfemur -40.0396 -1.4178 -5.00216
ltibia 18.3156 -0 0
lfoot -16.1678 17.7828 0.0132949
ltoes -10.7978 0 0
rfemur 10.0812 7.2344 31.8631
rtibia 6.26983 -0 0
rfoot -16.6591 -1.22988 -0.0145708
rtoes -8.37116 0 0
lowerback -6.40465 1.67235 3.16751
upperback -1.16656 1.92801 3.03769
thorax 2.38764 0.974449 1.51691
lowerneck -19.9064 -4.83264 -11.6485
upperneck 15.9027 -6.35339 14.9083
head 9.16728 -2.16663 6.25179
lclavicle 1.14301e-15 -1.38487e-14 0
lhumerus -40.7389 -9.11661 90.2476
lradius 28.6304 -0 0
lwrist 6.70611 0 0
lhand -7.84989 -23.0306 -0.00311702
lfingers 7.12502 0 0
lthumb 18.0533 6.15141 -0.00304864
rclavicle 1.14301e-15 -1.38487e-14 0
rhumerus -41.9938 19.4852 -89.9161
rradius 62.8056 -0 0
rwrist -34.6571 0 0
rhand -31.1138 -29.5504 -0.0024059
rfingers 7.12502 0 0
rthumb -4.39305 -59.4842 -0.0023646
22
root 7.69671 15.8524 -33.8871 6.95934 -6.67298 -6.58022
lfemur -39.8867 -1.051 -4.89384
ltibia 18.3432 -0 0
lfoot -16.1479 17.786 0.0159267
ltoes -11.2105 0 0
rfemur 11.6408 7.5553 31.8829
rtibia 4.39968 -0 0
rfoot -15.4456 -1.47891 -0.0168493
rtoes -9.44362 0 0
lowerback -6.38417 1.80722 3.37612
upperback -1.12012 2.09346 2.98601
thorax 2.43364 1.05879 1.36219
lowerneck -19.8417 -4.79881 -11.5381
upperneck 15.8374 -6.34275 14.9282
head 9.12922 -2.15603 6.23905
lclavicle -9.75285e-16 -1.72943e-14 0
lhumerus -41.0179 -9.29603 90.2529
lradius 28.5394 -0 0
lwrist 6.49171 0 0
lhand -8.03656 -22.787 -0.00455624
lfingers 7.12502 0 0
lthumb 17.8736 6.41162 -0.00441465
rclavicle -9.75285e-16 -1.72943e-14 0
rhumerus -42.1836 19.5108 -90.3696
rradius 62.7766 -0 0
rwrist -34.487 0 0
rhand -30.8867 -29.7866 -0.00297019
rfingers 7.12502 0 0
rthumb -4.17373 -59.7247 -0.00291826
23
root 7.71666 15.8383 -33.7397 6.88799 -7.19801 -6.68943
lfemur -39.746 -0.582536 -4.90796
ltibia 18.4775 -0 0
lfoot -16.056 17.6429 0.0146766
ltoes -11.6959 0 0
rfemur 13.1526 7.85289 31.8804
rtibia 2.60722 -0 0
rfoot -14.2744 -1.72346 -0.0130968
rtoes -10.8132 0 0
lowerback -6.37652 1.92606 3.56371
upperback -1.073 2.23821 2.936
thorax 2.4872 1.13286 1.21971
lowerneck -19.7843 -4.76397 -11.4316
upperneck 15.7755 -6.32955 14.9509
head 9.09349 -2.1439 6.22853
lclavicle -3.09358e-15 -2.07399e-14 0
lhumerus -41.2926 -9.43252 90.2505
lradius 28.4369 -0 0
lwrist 6.2478 0 0
lhand -8.2525 -22.5604 -0.00459865
lfingers 7.12502 0 0
lthumb 17.6658 6.65714 -0.00442085
rclavicle -3.09358e-15 -2.07399e-14 0
rhumerus -42.3658 19.5406 -90.8084
rradius 62.7136 -0 0
rwrist -34.2709 0 0
rhand -30.6595 -30.0396 -0.00254523
rfingers 7.12502 0 0
rthumb -3.95425 -59.982 -0.0024993
24
root 7.7366 15.8243 -33.5922 6.84411 -7.64105 -6.78425
lfemur -39.6478 -0.0619876 -5.0218
ltibia 18.6909 -0 0
lfoot -15.8824 17.3791 0.00929606
ltoes -12.1609 0 0
rfemur 14.5033 8.07844 31.8573
rtibia 1.0786 -0 0
rfoot -13.2978 -1.90183 -0.00578982
rtoes -12.5506 0 0
lowerback -6.40862 2.01416 3.7224
upperback -1.03252 2.34127 2.90524
thorax 2.55434 1.18617 1.11068
lowerneck -19.7532 -4.72997 -11.3511
upperneck 15.7362 -6.30829 14.9676
head 9.06956 -2.129 6.22244
lclavicle -5.21188e-15 -2.41855e-14 0
lhumerus -41.5529 -9.51086 90.258
lradius 28.3054 -0 0
lwrist 5.98062 0 0
lhand -8.48362 -22.4192 -0.00295253
lfingers 7.12502 0 0
lthumb 17.4434 6.81833 -0.00281198
rclavicle -5.21188e-15 -2.41855e-14 0
rhumerus -42.5464 19.5873 -91.2105
rradius 62.6226 -0 0
rwrist -33.9965 0 0
rhand -30.4679 -30.2793 -0.00132813
rfingers 7.12502 0 0
rthumb -3.76927 -60.2254 -0.00130299
25
root 7.75655 15.8102 -33.4448 6.84941 -7.95741 -6.8726
lfemur -39.622 0.460683 -5.21349
ltibia 18.9562 0 0
lfoot -15.6173 17.0199 0
ltoes -12.5122 0 0
rfemur 15.5794 8.18291 31.8121
rtibia -2.8625e-14 0 0
rfoot -12.6678 -1.95247 0
rtoes -14.7266 0 0
lowerback -6.50745 2.05693 3.84426
upperback -1.00596 2.38165 2.91131
thorax 2.64112 1.20819 1.05626
lowerneck -19.7676 -4.69866 -11.3188
upperneck 15.739 -6.2735 14.9696
head 9.06692 -2.11005 6.223
lclavicle -7.33018e-15 -2.76311e-14 0
lhumerus -41.7886 -9.51569 90.2927
lradius 28.1271 0 0
lwrist 5.69643 0 0
lhand -8.71585 -22.4315 0
lfingers 7.12502 0 0
lthumb 17.2199 6.82554 0
rclavicle -7.33018e-15 -2.76311e-14 0
rhumerus -42.7315 19.6635 -91.5541
rradius 62.5095 0 0
rwrist -33.6512 0 0
rhand -30.3479 -30.4758 0
rfingers 7.12502 0 0
rthumb -3.65339 -60.4242 0
26
root 7.78545 15.7988 -33.2855 6.91675 -8.11335 -6.95307
lfemur -39.6716 1.02285 -5.54061
ltibia 19.2619 -0 0
lfoot -15.3161 16.4929 -0.00522675
ltoes -12.8495 0 0
rfemur 16.3197 8.1398 31.7351
rtibia -2.12037e-14 0 0
rfoot -12.5148 -1.83637 0.000711753
rtoes -18.1841 0 0
lowerback -6.69502 2.04171 3.93115
upperback -0.995971 2.34079 2.95902
thorax 2.75665 1.18965 1.05949
lowerneck -19.8362 -4.66796 -11.3503
upperneck 15.7993 -6.21969 14.9621
head 9.09229 -2.08444 6.23621
lclavicle -8.95152e-15 -2.25621e-14 0
lhumerus -41.9938 -9.4109 90.3453
lradius 27.8838 -0 0
lwrist 5.37156 0 0
lhand -8.99216 -22.6772 0.00407099
lfingers 7.12502 0 0
lthumb 16.9539 6.60231 0.0037848
rclavicle -8.95152e-15 -2.25621e-14 0
rhumerus -42.9228 19.7806 -91.8331
rradius 62.3756 -0 0
rwrist -33.1919 0 0
rhand -30.3168 -30.6501 0.000883975
rfingers 7.12502 0 0
rthumb -3.62339 -60.5991 0.000863886
27
root 7.81434 15.7873 -33.1262 7.0308 -8.13774 -7.01923
lfemur -39.7771 1.6714 -6.03343
ltibia 19.6276 -0 0
lfoot -14.9978 15.7631 -0.0025565
ltoes -13.2672 0 0
rfemur 16.8023 7.98372 31.6212
rtibia -1.37824e-14 0 0
rfoot -12.7433 -1.59501 -0.00152617
rtoes -23.0352 0 0
lowerback -6.95437 1.97778 3.98995
upperback -0.997322 2.23175 3.03524
thorax 2.89795 1.13698 1.10394
lowerneck -19.9455 -4.63606 -11.431
upperneck 15.9047 -6.15014 14.9531
head 9.13942 -2.05266 6.2615
lclavicle -1.05729e-14 -1.74931e-14 0
lhumerus -42.1752 -9.20154 90.3993
lradius 27.5858 -0 0
lwrist 4.99628 0 0
lhand -9.33244 -23.1177 0.0075017
lfingers 7.12502 0 0
lthumb 16.6263 6.18905 0.00694553
rclavicle -1.05729e-14 -1.74931e-14 0
rhumerus -43.1158 19.9311 -92.0639
rradius 62.2162 -0 0
rwrist -32.6201 0 0
rhand -30.3495 -30.8303 0.00126964
rfingers 7.12502 0 0
rthumb -3.65491 -60.7789 0.00123825
28
root 7.84323 15.7758 -32.9669 7.17114 -8.07984 -7.07142
lfemur -39.9335 2.37018 -6.62963
ltibia 20.0725 -0 0
lfoot -14.5978 14.9125 0.00292346
ltoes -13.6644 0 0
rfemur 17.123 7.75676 31.4763
rtibia -6.3611e-15 0 0
rfoot -13.1663 -1.28764 -0.00327775
rtoes -28.2541 0 0
lowerback -7.25394 1.88331 4.02038
upperback -1.00547 2.08101 3.1306
thorax 3.05291 1.06316 1.18153
lowerneck -20.0813 -4.60518 -11.5379
upperneck 16.0327 -6.07253 14.9383
head 9.19838 -2.01812 6.29128
lclavicle -1.21942e-14 -1.24241e-14 0
lhumerus -42.3415 -8.93382 90.4613
lradius 27.2587 -0 0
lwrist 4.59773 0 0
lhand -9.68792 -23.6435 0.008092
lfingers 7.12502 0 0
lthumb 16.2841 5.69145 0.00747068
rclavicle -1.21942e-14 -1.24241e-14 0
rhumerus -43.3079 20.0993 -92.2588
rradius 62.0287 -0 0
rwrist -31.9899 0 0
rhand -30.4178 -30.9973 0.00111184
rfingers 7.12502 0 0
rthumb -3.72091 -60.9447 0.00108324
